<svg width="300" height="80" viewBox="0 0 300 80" fill="none" xmlns="http://www.w3.org/2000/svg" aria-label="Ocean Breeze Recovery Housing">
  <!-- Sun -->
  <circle cx="28" cy="16" r="6" fill="#f97316" opacity="0.9"/>
  <!-- Palm trunk -->
  <path d="M26 62 Q28 50 31 38 Q33 30 32 20" stroke="#0d9488" stroke-width="3" stroke-linecap="round" fill="none"/>
  <!-- Palm fronds -->
  <path d="M32 20 Q22 13 12 16" stroke="#0d9488" stroke-width="2.5" stroke-linecap="round" fill="none"/>
  <path d="M32 20 Q26 10 30 4" stroke="#0d9488" stroke-width="2.5" stroke-linecap="round" fill="none"/>
  <path d="M32 20 Q40 10 48 14" stroke="#0d9488" stroke-width="2.5" stroke-linecap="round" fill="none"/>
  <path d="M32 20 Q42 18 50 24" stroke="#0d9488" stroke-width="2" stroke-linecap="round" fill="none"/>
  <path d="M32 20 Q20 24 16 30" stroke="#0d9488" stroke-width="2" stroke-linecap="round" fill="none"/>
  <!-- Coconuts -->
  <circle cx="32" cy="23" r="2.5" fill="#f97316" opacity="0.85"/>
  <!-- Ocean waves -->
  <path d="M4 56 Q9 51 14 56 Q19 61 24 56 Q29 51 34 56 Q39 61 44 56 Q49 51 54 56" stroke="#0d9488" stroke-width="2.5" stroke-linecap="round" fill="none" opacity="0.75"/>
  <path d="M6 66 Q11 61 16 66 Q21 71 26 66 Q31 61 36 66 Q41 71 46 66 Q51 61 56 66" stroke="#0d9488" stroke-width="2" stroke-linecap="round" fill="none" opacity="0.5"/>
  <!-- Text: OCEAN BREEZE -->
  <text x="68" y="30" font-size="20" font-weight="800" fill="#0d9488" font-family="Arial, Helvetica, sans-serif" letter-spacing="1">OCEAN BREEZE</text>
  <!-- Text: RECOVERY HOUSING -->
  <text x="68" y="50" font-size="13" font-weight="600" fill="#f87171" font-family="Arial, Helvetica, sans-serif" letter-spacing="1.5">RECOVERY HOUSING</text>
  <!-- Tagline -->
  <text x="68" y="66" font-size="10" fill="#6b7280" font-family="Arial, Helvetica, sans-serif" letter-spacing="0.5">West Palm Beach, FL</text>
</svg>
